<svg width="48" height="48" viewBox="0 0 48 48" fill="none" xmlns="http://www.w3.org/2000/svg">
<circle cx="24" cy="24" r="24" fill="#7A8EF2"/>
<path d="M20 17.75C19.59 17.75 19.25 17.41 19.25 17V14C19.25 13.59 19.59 13.25 20 13.25C20.41 13.25 20.75 13.59 20.75 14V17C20.75 17.41 20.41 17.75 20 17.75Z" fill="#FFFBFF"/>
<path d="M28 17.75C27.59 17.75 27.25 17.41 27.25 17V14C27.25 13.59 27.59 13.25 28 13.25C28.41 13.25 28.75 13.59 28.75 14V17C28.75 17.41 28.41 17.75 28 17.75Z" fill="#FFFBFF"/>
<path d="M20.5 26.4998C20.37 26.4998 20.24 26.4698 20.12 26.4198C19.99 26.3698 19.89 26.2998 19.79 26.2098C19.61 26.0198 19.5 25.7698 19.5 25.4998C19.5 25.3698 19.53 25.2398 19.58 25.1198C19.63 24.9998 19.7 24.8898 19.79 24.7898C19.89 24.6998 19.99 24.6298 20.12 24.5798C20.48 24.4298 20.93 24.5098 21.21 24.7898C21.39 24.9798 21.5 25.2398 21.5 25.4998C21.5 25.5598 21.49 25.6298 21.48 25.6998C21.47 25.7598 21.45 25.8198 21.42 25.8798C21.4 25.9398 21.37 25.9998 21.33 26.0598C21.3 26.1098 21.25 26.1598 21.21 26.2098C21.02 26.3898 20.76 26.4998 20.5 26.4998Z" fill="#FFFBFF"/>
<path d="M24 26.4999C23.87 26.4999 23.74 26.4699 23.62 26.4199C23.49 26.3699 23.39 26.2999 23.29 26.2099C23.11 26.0199 23 25.7699 23 25.4999C23 25.3699 23.03 25.2399 23.08 25.1199C23.13 24.9999 23.2 24.8899 23.29 24.7899C23.39 24.6999 23.49 24.6299 23.62 24.5799C23.98 24.4199 24.43 24.5099 24.71 24.7899C24.89 24.9799 25 25.2399 25 25.4999C25 25.5599 24.99 25.6299 24.98 25.6999C24.97 25.7599 24.95 25.8199 24.92 25.8799C24.9 25.9399 24.87 25.9999 24.83 26.0599C24.8 26.1099 24.75 26.1599 24.71 26.2099C24.52 26.3899 24.26 26.4999 24 26.4999Z" fill="#FFFBFF"/>
<path d="M27.5 26.4999C27.37 26.4999 27.24 26.4699 27.12 26.4199C26.99 26.3699 26.89 26.2999 26.79 26.2099C26.75 26.1599 26.71 26.1099 26.67 26.0599C26.63 25.9999 26.6 25.9399 26.58 25.8799C26.55 25.8199 26.53 25.7599 26.52 25.6999C26.51 25.6299 26.5 25.5599 26.5 25.4999C26.5 25.2399 26.61 24.9799 26.79 24.7899C26.89 24.6999 26.99 24.6299 27.12 24.5799C27.49 24.4199 27.93 24.5099 28.21 24.7899C28.39 24.9799 28.5 25.2399 28.5 25.4999C28.5 25.5599 28.49 25.6299 28.48 25.6999C28.47 25.7599 28.45 25.8199 28.42 25.8799C28.4 25.9399 28.37 25.9999 28.33 26.0599C28.3 26.1099 28.25 26.1599 28.21 26.2099C28.02 26.3899 27.76 26.4999 27.5 26.4999Z" fill="#FFFBFF"/>
<path d="M20.5 30.0002C20.37 30.0002 20.24 29.9702 20.12 29.9202C20 29.8702 19.89 29.8002 19.79 29.7102C19.61 29.5202 19.5 29.2602 19.5 29.0002C19.5 28.8702 19.53 28.7402 19.58 28.6202C19.63 28.4902 19.7 28.3802 19.79 28.2902C20.16 27.9202 20.84 27.9202 21.21 28.2902C21.39 28.4802 21.5 28.7402 21.5 29.0002C21.5 29.2602 21.39 29.5202 21.21 29.7102C21.02 29.8902 20.76 30.0002 20.5 30.0002Z" fill="#FFFBFF"/>
<path d="M24 30.0002C23.74 30.0002 23.48 29.8902 23.29 29.7102C23.11 29.5202 23 29.2602 23 29.0002C23 28.8702 23.03 28.7402 23.08 28.6202C23.13 28.4902 23.2 28.3802 23.29 28.2902C23.66 27.9202 24.34 27.9202 24.71 28.2902C24.8 28.3802 24.87 28.4902 24.92 28.6202C24.97 28.7402 25 28.8702 25 29.0002C25 29.2602 24.89 29.5202 24.71 29.7102C24.52 29.8902 24.26 30.0002 24 30.0002Z" fill="#FFFBFF"/>
<path d="M27.5 29.9999C27.24 29.9999 26.98 29.8899 26.79 29.7099C26.7 29.6199 26.63 29.5099 26.58 29.3799C26.53 29.2599 26.5 29.1299 26.5 28.9999C26.5 28.8699 26.53 28.7399 26.58 28.6199C26.63 28.4899 26.7 28.3799 26.79 28.2899C27.02 28.0599 27.37 27.9499 27.69 28.0199C27.76 28.0299 27.82 28.0499 27.88 28.0799C27.94 28.0999 28 28.1299 28.06 28.1699C28.11 28.1999 28.16 28.2499 28.21 28.2899C28.39 28.4799 28.5 28.7399 28.5 28.9999C28.5 29.2599 28.39 29.5199 28.21 29.7099C28.02 29.8899 27.76 29.9999 27.5 29.9999Z" fill="#FFFBFF"/>
<path d="M32.5 21.8398H15.5C15.09 21.8398 14.75 21.4998 14.75 21.0898C14.75 20.6798 15.09 20.3398 15.5 20.3398H32.5C32.91 20.3398 33.25 20.6798 33.25 21.0898C33.25 21.4998 32.91 21.8398 32.5 21.8398Z" fill="#FFFBFF"/>
<path d="M28 34.75H20C16.35 34.75 14.25 32.65 14.25 29V20.5C14.25 16.85 16.35 14.75 20 14.75H28C31.65 14.75 33.75 16.85 33.75 20.5V29C33.75 32.65 31.65 34.75 28 34.75ZM20 16.25C17.14 16.25 15.75 17.64 15.75 20.5V29C15.75 31.86 17.14 33.25 20 33.25H28C30.86 33.25 32.25 31.86 32.25 29V20.5C32.25 17.64 30.86 16.25 28 16.25H20Z" fill="#FFFBFF"/>
</svg>
