<svg width="20" height="20" viewBox="0 0 20 20" fill="none" xmlns="http://www.w3.org/2000/svg">
<path d="M13.3333 4.79199C12.9916 4.79199 12.7083 4.50866 12.7083 4.16699V1.66699C12.7083 1.32533 12.9916 1.04199 13.3333 1.04199C13.6749 1.04199 13.9583 1.32533 13.9583 1.66699V4.16699C13.9583 4.50866 13.6749 4.79199 13.3333 4.79199Z" fill="#983DFA"/>
<path d="M7.08333 12.0839C6.975 12.0839 6.86667 12.0589 6.76667 12.0173C6.65833 11.9756 6.575 11.9172 6.49167 11.8422C6.34167 11.6839 6.25 11.4756 6.25 11.2506C6.25 11.1423 6.275 11.0339 6.31667 10.9339C6.35833 10.8339 6.41667 10.7423 6.49167 10.6589C6.575 10.5839 6.65833 10.5256 6.76667 10.4839C7.06667 10.3589 7.44167 10.4256 7.675 10.6589C7.825 10.8173 7.91667 11.0339 7.91667 11.2506C7.91667 11.3006 7.90833 11.3589 7.9 11.4173C7.89167 11.4673 7.875 11.5173 7.85 11.5673C7.83333 11.6173 7.80833 11.6672 7.775 11.7172C7.75 11.7589 7.70833 11.8006 7.675 11.8422C7.51667 11.9922 7.3 12.0839 7.08333 12.0839Z" fill="#983DFA"/>
<path d="M10.0001 12.0837C9.89175 12.0837 9.78341 12.0587 9.68341 12.0171C9.57508 11.9754 9.49175 11.917 9.40842 11.842C9.25842 11.6837 9.16675 11.4754 9.16675 11.2504C9.16675 11.142 9.19175 11.0337 9.23342 10.9337C9.27508 10.8337 9.33342 10.7421 9.40842 10.6587C9.49175 10.5837 9.57508 10.5254 9.68341 10.4837C9.98341 10.3504 10.3584 10.4254 10.5917 10.6587C10.7417 10.8171 10.8334 11.0337 10.8334 11.2504C10.8334 11.3004 10.8251 11.3587 10.8167 11.4171C10.8084 11.4671 10.7917 11.5171 10.7667 11.5671C10.7501 11.6171 10.7251 11.667 10.6917 11.717C10.6667 11.7587 10.6251 11.8004 10.5917 11.842C10.4334 11.992 10.2167 12.0837 10.0001 12.0837Z" fill="#983DFA"/>
<path d="M12.9166 12.0837C12.8083 12.0837 12.6999 12.0587 12.5999 12.0171C12.4916 11.9754 12.4083 11.917 12.3249 11.842C12.2916 11.8004 12.2583 11.7587 12.2249 11.717C12.1916 11.667 12.1666 11.6171 12.1499 11.5671C12.1249 11.5171 12.1083 11.4671 12.0999 11.4171C12.0916 11.3587 12.0833 11.3004 12.0833 11.2504C12.0833 11.0337 12.1749 10.8171 12.3249 10.6587C12.4083 10.5837 12.4916 10.5254 12.5999 10.4837C12.9083 10.3504 13.2749 10.4254 13.5083 10.6587C13.6583 10.8171 13.7499 11.0337 13.7499 11.2504C13.7499 11.3004 13.7416 11.3587 13.7333 11.4171C13.7249 11.4671 13.7083 11.5171 13.6833 11.5671C13.6666 11.6171 13.6416 11.667 13.6083 11.717C13.5833 11.7587 13.5416 11.8004 13.5083 11.842C13.3499 11.992 13.1333 12.0837 12.9166 12.0837Z" fill="#983DFA"/>
<path d="M7.08333 15C6.975 15 6.86667 14.975 6.76667 14.9333C6.66667 14.8917 6.575 14.8333 6.49167 14.7583C6.34167 14.6 6.25 14.3833 6.25 14.1667C6.25 14.0583 6.275 13.95 6.31667 13.85C6.35833 13.7417 6.41667 13.65 6.49167 13.575C6.8 13.2667 7.36667 13.2667 7.675 13.575C7.825 13.7333 7.91667 13.95 7.91667 14.1667C7.91667 14.3833 7.825 14.6 7.675 14.7583C7.51667 14.9083 7.3 15 7.08333 15Z" fill="#983DFA"/>
<path d="M10.0001 15C9.78341 15 9.56675 14.9083 9.40842 14.7583C9.25842 14.6 9.16675 14.3833 9.16675 14.1667C9.16675 14.0583 9.19175 13.95 9.23342 13.85C9.27508 13.7417 9.33342 13.65 9.40842 13.575C9.71675 13.2667 10.2834 13.2667 10.5917 13.575C10.6667 13.65 10.7251 13.7417 10.7667 13.85C10.8084 13.95 10.8334 14.0583 10.8334 14.1667C10.8334 14.3833 10.7417 14.6 10.5917 14.7583C10.4334 14.9083 10.2167 15 10.0001 15Z" fill="#983DFA"/>
<path d="M12.9166 15.0004C12.6999 15.0004 12.4833 14.9087 12.3249 14.7587C12.2499 14.6837 12.1916 14.5921 12.1499 14.4838C12.1083 14.3838 12.0833 14.2754 12.0833 14.1671C12.0833 14.0587 12.1083 13.9504 12.1499 13.8504C12.1916 13.7421 12.2499 13.6504 12.3249 13.5754C12.5166 13.3838 12.8083 13.2921 13.0749 13.3504C13.1333 13.3587 13.1833 13.3754 13.2333 13.4004C13.2833 13.4171 13.3333 13.4421 13.3833 13.4754C13.4249 13.5004 13.4666 13.5421 13.5083 13.5754C13.6583 13.7338 13.7499 13.9504 13.7499 14.1671C13.7499 14.3837 13.6583 14.6004 13.5083 14.7587C13.3499 14.9087 13.1333 15.0004 12.9166 15.0004Z" fill="#983DFA"/>
<path d="M17.0834 8.20019H2.91675C2.57508 8.20019 2.29175 7.91686 2.29175 7.5752C2.29175 7.23353 2.57508 6.9502 2.91675 6.9502H17.0834C17.4251 6.9502 17.7084 7.23353 17.7084 7.5752C17.7084 7.91686 17.4251 8.20019 17.0834 8.20019Z" fill="#983DFA"/>
<path d="M13.3333 18.9587H6.66667C3.625 18.9587 1.875 17.2087 1.875 14.167V7.08366C1.875 4.04199 3.625 2.29199 6.66667 2.29199H13.3333C16.375 2.29199 18.125 4.04199 18.125 7.08366V14.167C18.125 17.2087 16.375 18.9587 13.3333 18.9587ZM6.66667 3.54199C4.28333 3.54199 3.125 4.70033 3.125 7.08366V14.167C3.125 16.5503 4.28333 17.7087 6.66667 17.7087H13.3333C15.7167 17.7087 16.875 16.5503 16.875 14.167V7.08366C16.875 4.70033 15.7167 3.54199 13.3333 3.54199H6.66667Z" fill="#983DFA"/>
</svg>
