<svg width="32" height="32" viewBox="0 0 32 32" fill="none" xmlns="http://www.w3.org/2000/svg">
<path d="M20.0001 30.3337H12.0001C4.76008 30.3337 1.66675 27.2403 1.66675 20.0003V12.0003C1.66675 4.76033 4.76008 1.66699 12.0001 1.66699H20.0001C27.2401 1.66699 30.3334 4.76033 30.3334 12.0003V20.0003C30.3334 27.2403 27.2401 30.3337 20.0001 30.3337ZM12.0001 3.66699C5.85341 3.66699 3.66675 5.85366 3.66675 12.0003V20.0003C3.66675 26.147 5.85341 28.3337 12.0001 28.3337H20.0001C26.1467 28.3337 28.3334 26.147 28.3334 20.0003V12.0003C28.3334 5.85366 26.1467 3.66699 20.0001 3.66699H12.0001Z" fill="#983DFA"/>
<path d="M14.3199 21.7069C14.0666 21.7069 13.8132 21.6135 13.6132 21.4135C13.2266 21.0269 13.2266 20.3869 13.6132 20.0002L17.6132 16.0002L13.6132 12.0002C13.2266 11.6135 13.2266 10.9735 13.6132 10.5869C13.9999 10.2002 14.6399 10.2002 15.0266 10.5869L19.7332 15.2935C20.1199 15.6802 20.1199 16.3202 19.7332 16.7069L15.0266 21.4135C14.8266 21.6135 14.5732 21.7069 14.3199 21.7069Z" fill="#983DFA"/>
</svg>
