<svg width="32" height="32" viewBox="0 0 32 32" fill="none" xmlns="http://www.w3.org/2000/svg">
<path d="M20.0001 30.3337H12.0001C4.76008 30.3337 1.66675 27.2403 1.66675 20.0003V12.0003C1.66675 4.76033 4.76008 1.66699 12.0001 1.66699H20.0001C27.2401 1.66699 30.3334 4.76033 30.3334 12.0003V20.0003C30.3334 27.2403 27.2401 30.3337 20.0001 30.3337ZM12.0001 3.66699C5.85341 3.66699 3.66675 5.85366 3.66675 12.0003V20.0003C3.66675 26.147 5.85341 28.3337 12.0001 28.3337H20.0001C26.1467 28.3337 28.3334 26.147 28.3334 20.0003V12.0003C28.3334 5.85366 26.1467 3.66699 20.0001 3.66699H12.0001Z" fill="#983DFA"/>
<path d="M17.6799 21.7069C17.4266 21.7069 17.1732 21.6135 16.9732 21.4135L12.2666 16.7069C11.8799 16.3202 11.8799 15.6802 12.2666 15.2935L16.9732 10.5869C17.3599 10.2002 17.9999 10.2002 18.3866 10.5869C18.7732 10.9735 18.7732 11.6135 18.3866 12.0002L14.3866 16.0002L18.3866 20.0002C18.7732 20.3869 18.7732 21.0269 18.3866 21.4135C18.1999 21.6135 17.9466 21.7069 17.6799 21.7069Z" fill="#983DFA"/>
</svg>
