<svg width="48" height="48" viewBox="0 0 48 48" fill="none" xmlns="http://www.w3.org/2000/svg">
<circle cx="24" cy="24" r="24" fill="#983DFA"/>
<path d="M24 34.75C18.07 34.75 13.25 29.93 13.25 24C13.25 18.07 18.07 13.25 24 13.25C29.93 13.25 34.75 18.07 34.75 24C34.75 29.93 29.93 34.75 24 34.75ZM24 14.75C18.9 14.75 14.75 18.9 14.75 24C14.75 29.1 18.9 33.25 24 33.25C29.1 33.25 33.25 29.1 33.25 24C33.25 18.9 29.1 14.75 24 14.75Z" fill="#F8F2FF"/>
<path d="M28 24.75H20C19.59 24.75 19.25 24.41 19.25 24C19.25 23.59 19.59 23.25 20 23.25H28C28.41 23.25 28.75 23.59 28.75 24C28.75 24.41 28.41 24.75 28 24.75Z" fill="#F8F2FF"/>
<path d="M24 28.75C23.59 28.75 23.25 28.41 23.25 28V20C23.25 19.59 23.59 19.25 24 19.25C24.41 19.25 24.75 19.59 24.75 20V28C24.75 28.41 24.41 28.75 24 28.75Z" fill="#F8F2FF"/>
</svg>
