<svg width="16" height="16" viewBox="0 0 16 16" fill="none" xmlns="http://www.w3.org/2000/svg">
<g clip-path="url(#clip0_1233_7061)">
<path d="M14.7145 2.15235C12.9744 0.252208 10.1436 0.252208 8.40392 2.15235L7.99985 2.59344L7.59602 2.15235C5.85636 0.251951 3.0253 0.251951 1.28565 2.15235C-0.418688 4.01391 -0.429755 6.96469 1.25998 9.01632C2.80114 10.8869 7.34642 14.9282 7.53927 15.0992C7.67019 15.2154 7.82772 15.272 7.98431 15.272C7.98949 15.272 7.99467 15.272 7.99962 15.2718C8.16162 15.28 8.3248 15.2193 8.45996 15.0992C8.65281 14.9282 13.1986 10.8869 14.7402 9.01606C16.4297 6.96469 16.4186 4.01391 14.7145 2.15235ZM13.69 7.98394C12.4884 9.44197 9.18545 12.4491 7.99962 13.5162C6.81379 12.4493 3.51155 9.44249 2.31018 7.9842C1.13141 6.55318 1.12035 4.51518 2.28451 3.24362C2.87908 2.59447 3.6599 2.26963 4.44072 2.26963C5.22154 2.26963 6.00236 2.59421 6.59692 3.24362L7.48511 4.21375C7.59084 4.32923 7.72412 4.39816 7.86399 4.42234C8.09098 4.47557 8.33728 4.40639 8.51389 4.21401L9.40255 3.24362C10.5919 1.94505 12.5265 1.94531 13.7152 3.24362C14.8794 4.51518 14.8683 6.55318 13.69 7.98394Z" fill="#676C6A"/>
</g>
<defs>
<clipPath id="clip0_1233_7061">
<rect width="16" height="16" fill="white"/>
</clipPath>
</defs>
</svg>
