<svg xmlns="http://www.w3.org/2000/svg" width="16.63" height="15.044" viewBox="0 0 16.63 15.044">
  <g id="like-filled" transform="translate(0 -30)">
    <g id="Group_206" data-name="Group 206" transform="translate(0 30)">
      <path id="Path_813" data-name="Path 813" d="M12.213,30a3.877,3.877,0,0,0-2.459.871,5.713,5.713,0,0,0-1.439,1.773,5.712,5.712,0,0,0-1.439-1.773A3.877,3.877,0,0,0,4.417,30C1.9,30,0,32.111,0,34.91,0,37.933,2.369,40,5.956,43.134c.609.532,1.3,1.135,2.017,1.778a.51.51,0,0,0,.684,0c.718-.643,1.408-1.246,2.017-1.778,3.586-3.132,5.956-5.2,5.956-8.224C16.63,32.111,14.731,30,12.213,30Z" transform="translate(0 -30)" fill="#000"/>
    </g>
  </g>
</svg>
