<svg width="24" height="24" viewBox="0 0 24 24" fill="none" xmlns="http://www.w3.org/2000/svg">
<path d="M8.98999 21.5001C7.32999 21.5001 5.65999 20.8701 4.38999 19.6001C1.85999 17.0601 1.85999 12.9401 4.38999 10.4101C4.67999 10.1201 5.15999 10.1201 5.44999 10.4101C5.73999 10.7001 5.73999 11.1801 5.44999 11.4701C3.49999 13.4201 3.49999 16.5901 5.44999 18.5401C7.39999 20.4901 10.57 20.4901 12.52 18.5401C13.46 17.6001 13.98 16.3401 13.98 15.0001C13.98 13.6701 13.46 12.4101 12.52 11.4601C12.23 11.1701 12.23 10.6901 12.52 10.4001C12.81 10.1101 13.29 10.1101 13.58 10.4001C14.81 11.6301 15.48 13.2601 15.48 15.0001C15.48 16.7401 14.8 18.3701 13.58 19.6001C12.32 20.8701 10.66 21.5001 8.98999 21.5001Z" fill="#983DFA"/>
<path d="M19.07 14.1602C18.88 14.1602 18.69 14.0902 18.54 13.9402C18.25 13.6502 18.25 13.1702 18.54 12.8802C20.59 10.8302 20.59 7.50023 18.54 5.46023C16.49 3.41023 13.16 3.41023 11.12 5.46023C10.13 6.45023 9.58002 7.77023 9.58002 9.17023C9.58002 10.5702 10.13 11.8902 11.12 12.8802C11.41 13.1702 11.41 13.6502 11.12 13.9402C10.83 14.2302 10.35 14.2302 10.06 13.9402C8.79002 12.6702 8.08002 10.9702 8.08002 9.17023C8.08002 7.37023 8.78002 5.67023 10.06 4.40023C12.69 1.77023 16.97 1.77023 19.61 4.40023C22.24 7.03023 22.24 11.3202 19.61 13.9502C19.46 14.0902 19.26 14.1602 19.07 14.1602Z" fill="#983DFA"/>
</svg>
