<svg width="25" height="24" viewBox="0 0 25 24" fill="none" xmlns="http://www.w3.org/2000/svg">
<path d="M15.76 22.2498H9.23998C4.32998 22.2498 2.22998 20.1498 2.22998 15.2398V15.1098C2.22998 10.6698 3.97998 8.52978 7.89998 8.15978C8.29998 8.12978 8.67998 8.42978 8.71998 8.83978C8.75998 9.24978 8.45998 9.61978 8.03998 9.65978C4.89998 9.94978 3.72998 11.4298 3.72998 15.1198V15.2498C3.72998 19.3198 5.16998 20.7598 9.23998 20.7598H15.76C19.83 20.7598 21.27 19.3198 21.27 15.2498V15.1198C21.27 11.4098 20.08 9.92978 16.88 9.65978C16.47 9.61978 16.16 9.25978 16.2 8.84978C16.24 8.43978 16.59 8.12978 17.01 8.16978C20.99 8.50978 22.77 10.6598 22.77 15.1298V15.2598C22.77 20.1498 20.67 22.2498 15.76 22.2498Z" fill="#5A6F82"/>
<path d="M12.5 15.7501C12.09 15.7501 11.75 15.4101 11.75 15.0001V3.62012C11.75 3.21012 12.09 2.87012 12.5 2.87012C12.91 2.87012 13.25 3.21012 13.25 3.62012V15.0001C13.25 15.4101 12.91 15.7501 12.5 15.7501Z" fill="#5A6F82"/>
<path d="M15.85 6.59994C15.66 6.59994 15.47 6.52994 15.32 6.37994L12.5 3.55994L9.67997 6.37994C9.38997 6.66994 8.90997 6.66994 8.61997 6.37994C8.32997 6.08994 8.32997 5.60994 8.61997 5.31994L11.97 1.96994C12.26 1.67994 12.74 1.67994 13.03 1.96994L16.38 5.31994C16.67 5.60994 16.67 6.08994 16.38 6.37994C16.24 6.52994 16.04 6.59994 15.85 6.59994Z" fill="#5A6F82"/>
</svg>
