<svg width="25" height="25" viewBox="0 0 25 25" fill="none" xmlns="http://www.w3.org/2000/svg">
<path d="M17.905 8.27C17.835 8.26 17.765 8.26 17.695 8.27C16.145 8.22 14.915 6.95 14.915 5.39C14.915 3.8 16.205 2.5 17.805 2.5C19.395 2.5 20.695 3.79 20.695 5.39C20.685 6.95 19.455 8.22 17.905 8.27Z" fill="#FFFBFF"/>
<path d="M21.165 15.2004C20.045 15.9504 18.475 16.2304 17.025 16.0404C17.405 15.2204 17.605 14.3104 17.615 13.3504C17.615 12.3504 17.395 11.4004 16.975 10.5704C18.455 10.3704 20.025 10.6504 21.155 11.4004C22.735 12.4404 22.735 14.1504 21.165 15.2004Z" fill="#FFFBFF"/>
<path d="M6.81503 8.27C6.88503 8.26 6.95503 8.26 7.02503 8.27C8.57503 8.22 9.80503 6.95 9.80503 5.39C9.80503 3.79 8.51503 2.5 6.91503 2.5C5.32503 2.5 4.03503 3.79 4.03503 5.39C4.03503 6.95 5.26503 8.22 6.81503 8.27Z" fill="#FFFBFF"/>
<path d="M6.925 13.3496C6.925 14.3196 7.13499 15.2396 7.515 16.0696C6.105 16.2196 4.635 15.9196 3.555 15.2096C1.975 14.1596 1.975 12.4496 3.555 11.3996C4.625 10.6796 6.13499 10.3896 7.555 10.5496C7.145 11.3896 6.925 12.3396 6.925 13.3496Z" fill="#FFFBFF"/>
<path d="M12.495 16.37C12.415 16.36 12.325 16.36 12.235 16.37C10.395 16.31 8.92505 14.8 8.92505 12.94C8.93505 11.04 10.465 9.5 12.375 9.5C14.275 9.5 15.815 11.04 15.815 12.94C15.805 14.8 14.345 16.31 12.495 16.37Z" fill="#FFFBFF"/>
<path d="M9.24505 18.4396C7.73505 19.4496 7.73505 21.1096 9.24505 22.1096C10.965 23.2596 13.785 23.2596 15.505 22.1096C17.015 21.0996 17.015 19.4396 15.505 18.4396C13.795 17.2896 10.975 17.2896 9.24505 18.4396Z" fill="#FFFBFF"/>
</svg>
